<svg width="1381" height="512" viewBox="0 0 1381 512" fill="none" xmlns="http://www.w3.org/2000/svg">
<rect width="1381" height="512" fill="white"/>
<path d="M508.5 256C508.5 275.094 506.384 293.688 502.362 311.568C456.159 336.308 427.606 347.83 395.882 353.26C367.198 358.17 335.842 358.126 286.336 358.057C280.224 358.049 273.835 358.04 267.14 358.04C246.692 358.04 226.293 365.523 206.7 375.54C192.471 382.815 178.402 391.575 164.922 399.969C159.875 403.112 154.911 406.203 150.052 409.145C132.004 420.074 115.465 428.916 100.695 431.749C93.3842 433.152 86.6567 433.047 80.4689 431.086C74.3047 429.133 68.4352 425.261 62.9349 418.743C25.8478 374.791 3.5 318.003 3.5 256C3.5 116.543 116.543 3.5 256 3.5C395.457 3.5 508.5 116.543 508.5 256Z" fill="white" stroke="#BDC3C7" stroke-width="7"/>
<path d="M409.148 276.03L411.079 278.743L413.885 276.949L456.403 249.76L501.655 314.622C475.225 425.809 375.265 508.5 256 508.5C179.545 508.5 111.041 474.515 64.7325 420.829L137.215 322.256L184.7 341.25L187.141 342.226L188.759 340.153L327.871 161.855L409.148 276.03Z" fill="#BDC3C7" stroke="#BDC3C7" stroke-width="7"/>
<path d="M328 156L334.1 318L412 274L328 156Z" fill="#414F6B"/>
<path d="M89.62 421.57L136 433.57L181.11 489.07L263.61 417.07L230.61 340.57L328 156L186 338L136 318L86 386L89.62 421.57Z" fill="#ECF0F1"/>
<path d="M136 318V357L157.11 348.07L146.56 393.07L201.6 318H136Z" fill="#414F6B"/>
<path d="M310.109 414.07L349.099 355.54L418.099 334L451.099 401.79L411.999 374.04L334.099 456.07L310.109 414.07Z" fill="#414F6B"/>
<path d="M293.61 262.58L256 339.07L282.85 382.57L293.61 262.58Z" fill="#414F6B"/>
<path d="M431.6 288.08L451.1 346.57L475.1 322.57L431.6 288.08Z" fill="#ECF0F1"/>
<path d="M181.109 418.57L206.999 382.57L194.059 427.57L181.109 418.57Z" fill="#BDC3C7"/>
<path d="M573.2 97H595.2V217H631.4V237H573.2V97ZM672.969 239C662.169 239 653.902 235.933 648.169 229.8C642.435 223.667 639.569 215 639.569 203.8V130.2C639.569 119 642.435 110.333 648.169 104.2C653.902 98.0667 662.169 95 672.969 95C683.769 95 692.035 98.0667 697.769 104.2C703.502 110.333 706.369 119 706.369 130.2V203.8C706.369 215 703.502 223.667 697.769 229.8C692.035 235.933 683.769 239 672.969 239ZM672.969 219C680.569 219 684.369 214.4 684.369 205.2V128.8C684.369 119.6 680.569 115 672.969 115C665.369 115 661.569 119.6 661.569 128.8V205.2C661.569 214.4 665.369 219 672.969 219ZM749.847 239C739.18 239 731.114 236 725.647 230C720.18 223.867 717.447 215.133 717.447 203.8V195.8H738.247V205.4C738.247 214.467 742.047 219 749.647 219C753.38 219 756.18 217.933 758.047 215.8C760.047 213.533 761.047 209.933 761.047 205C761.047 199.133 759.714 194 757.047 189.6C754.38 185.067 749.447 179.667 742.247 173.4C733.18 165.4 726.847 158.2 723.247 151.8C719.647 145.267 717.847 137.933 717.847 129.8C717.847 118.733 720.647 110.2 726.247 104.2C731.847 98.0667 739.98 95 750.647 95C761.18 95 769.114 98.0667 774.447 104.2C779.914 110.2 782.647 118.867 782.647 130.2V136H761.847V128.8C761.847 124 760.914 120.533 759.047 118.4C757.18 116.133 754.447 115 750.847 115C743.514 115 739.847 119.467 739.847 128.4C739.847 133.467 741.18 138.2 743.847 142.6C746.647 147 751.647 152.333 758.847 158.6C768.047 166.6 774.38 173.867 777.847 180.4C781.314 186.933 783.047 194.6 783.047 203.4C783.047 214.867 780.18 223.667 774.447 229.8C768.847 235.933 760.647 239 749.847 239ZM812.075 97H841.875L864.675 237H842.675L838.675 209.2V209.6H813.675L809.675 237H789.275L812.075 97ZM836.075 190.6L826.275 121.4H825.875L816.275 190.6H836.075ZM875.348 97H902.948L924.348 180.8H924.748V97H944.348V237H921.748L895.348 134.8H894.948V237H875.348V97ZM991.9 239C981.233 239 973.1 236 967.5 230C961.9 223.867 959.1 215.133 959.1 203.8V130.2C959.1 118.867 961.9 110.2 967.5 104.2C973.1 98.0667 981.233 95 991.9 95C1002.57 95 1010.7 98.0667 1016.3 104.2C1021.9 110.2 1024.7 118.867 1024.7 130.2V142.2H1003.9V128.8C1003.9 119.6 1000.1 115 992.5 115C984.9 115 981.1 119.6 981.1 128.8V205.4C981.1 214.467 984.9 219 992.5 219C1000.1 219 1003.9 214.467 1003.9 205.4V178H992.9V158H1024.7V203.8C1024.7 215.133 1021.9 223.867 1016.3 230C1010.7 236 1002.57 239 991.9 239ZM1038.83 97H1098.83V117H1060.83V154H1091.03V174H1060.83V217H1098.83V237H1038.83V97ZM1111.48 97H1133.48V217H1169.68V237H1111.48V97ZM1180.23 97H1240.23V117H1202.23V154H1232.43V174H1202.23V217H1240.23V237H1180.23V97ZM1281.88 239C1271.21 239 1263.14 236 1257.68 230C1252.21 223.867 1249.48 215.133 1249.48 203.8V195.8H1270.28V205.4C1270.28 214.467 1274.08 219 1281.68 219C1285.41 219 1288.21 217.933 1290.08 215.8C1292.08 213.533 1293.08 209.933 1293.08 205C1293.08 199.133 1291.74 194 1289.08 189.6C1286.41 185.067 1281.48 179.667 1274.28 173.4C1265.21 165.4 1258.88 158.2 1255.28 151.8C1251.68 145.267 1249.88 137.933 1249.88 129.8C1249.88 118.733 1252.68 110.2 1258.28 104.2C1263.88 98.0667 1272.01 95 1282.68 95C1293.21 95 1301.14 98.0667 1306.48 104.2C1311.94 110.2 1314.68 118.867 1314.68 130.2V136H1293.88V128.8C1293.88 124 1292.94 120.533 1291.08 118.4C1289.21 116.133 1286.48 115 1282.88 115C1275.54 115 1271.88 119.467 1271.88 128.4C1271.88 133.467 1273.21 138.2 1275.88 142.6C1278.68 147 1283.68 152.333 1290.88 158.6C1300.08 166.6 1306.41 173.867 1309.88 180.4C1313.34 186.933 1315.08 194.6 1315.08 203.4C1315.08 214.867 1312.21 223.667 1306.48 229.8C1300.88 235.933 1292.68 239 1281.88 239Z" fill="#4D4D4D"/>
<path d="M573.2 337H604.6L618.6 437.2H619L633 337H664.4V477H643.6V371H643.2L627.2 477H608.8L592.8 371H592.4V477H573.2V337ZM712.617 479C701.817 479 693.551 475.933 687.817 469.8C682.084 463.667 679.217 455 679.217 443.8V370.2C679.217 359 682.084 350.333 687.817 344.2C693.551 338.067 701.817 335 712.617 335C723.417 335 731.684 338.067 737.417 344.2C743.151 350.333 746.017 359 746.017 370.2V443.8C746.017 455 743.151 463.667 737.417 469.8C731.684 475.933 723.417 479 712.617 479ZM712.617 459C720.217 459 724.017 454.4 724.017 445.2V368.8C724.017 359.6 720.217 355 712.617 355C705.017 355 701.217 359.6 701.217 368.8V445.2C701.217 454.4 705.017 459 712.617 459ZM792.895 479C782.229 479 774.095 476 768.495 470C762.895 463.867 760.095 455.133 760.095 443.8V337H782.095V445.4C782.095 450.2 783.029 453.667 784.895 455.8C786.895 457.933 789.695 459 793.295 459C796.895 459 799.629 457.933 801.495 455.8C803.495 453.667 804.495 450.2 804.495 445.4V337H825.695V443.8C825.695 455.133 822.895 463.867 817.295 470C811.695 476 803.562 479 792.895 479ZM841.364 337H868.964L890.364 420.8H890.764V337H910.364V477H887.764L861.364 374.8H860.964V477H841.364V337ZM943.916 357H920.916V337H988.916V357H965.916V477H943.916V357ZM1007.39 337H1037.19L1059.99 477H1037.99L1033.99 449.2V449.6H1008.99L1004.99 477H984.588L1007.39 337ZM1031.39 430.6L1021.59 361.4H1021.19L1011.59 430.6H1031.39ZM1070.66 337H1092.66V477H1070.66V337ZM1109.14 337H1136.74L1158.14 420.8H1158.54V337H1178.14V477H1155.54L1129.14 374.8H1128.74V477H1109.14V337ZM1223.09 479C1212.42 479 1204.36 476 1198.89 470C1193.42 463.867 1190.69 455.133 1190.69 443.8V435.8H1211.49V445.4C1211.49 454.467 1215.29 459 1222.89 459C1226.62 459 1229.42 457.933 1231.29 455.8C1233.29 453.533 1234.29 449.933 1234.29 445C1234.29 439.133 1232.96 434 1230.29 429.6C1227.62 425.067 1222.69 419.667 1215.49 413.4C1206.42 405.4 1200.09 398.2 1196.49 391.8C1192.89 385.267 1191.09 377.933 1191.09 369.8C1191.09 358.733 1193.89 350.2 1199.49 344.2C1205.09 338.067 1213.22 335 1223.89 335C1234.42 335 1242.36 338.067 1247.69 344.2C1253.16 350.2 1255.89 358.867 1255.89 370.2V376H1235.09V368.8C1235.09 364 1234.16 360.533 1232.29 358.4C1230.42 356.133 1227.69 355 1224.09 355C1216.76 355 1213.09 359.467 1213.09 368.4C1213.09 373.467 1214.42 378.2 1217.09 382.6C1219.89 387 1224.89 392.333 1232.09 398.6C1241.29 406.6 1247.62 413.867 1251.09 420.4C1254.56 426.933 1256.29 434.6 1256.29 443.4C1256.29 454.867 1253.42 463.667 1247.69 469.8C1242.09 475.933 1233.89 479 1223.09 479Z" fill="#414F6B"/>
</svg>
